<?xml version="1.0" encoding="UTF-8"?>
<svg width="483px" height="185px" viewBox="0 0 483 185" version="1.1" xmlns="http://www.w3.org/2000/svg" xmlns:xlink="http://www.w3.org/1999/xlink">
    <!-- Generator: Sketch 42 (36781) - http://www.bohemiancoding.com/sketch -->
    <title>Combined Shape</title>
    <desc>Created with Sketch.</desc>
    <defs></defs>
    <g id="Page-1" stroke="none" stroke-width="1" fill="none" fill-rule="evenodd">
        <g id="Logo-+-Name-List" transform="translate(-594.000000, -245.000000)" fill="#FFFFFF">
            <path d="M637.854003,257.041995 L655.763475,257.041995 L646.760335,321.136483 L637.854003,257.041995 Z M703.489796,245 L716.752486,257.041995 L667.380429,298.703412 L703.489796,245 Z M760.219257,280.154856 L762.058608,298.023622 L697.584511,295.790026 L760.219257,280.154856 Z M779,344.249344 L768.447933,358.816273 L721.980115,313.853018 L779,344.249344 Z M750.15123,404.55643 L732.62899,408.343832 L728.079016,343.76378 L750.15123,404.55643 Z M688.484563,430 L672.898482,421.065617 L712.686552,369.984252 L688.484563,430 Z M625.656201,407.566929 L620.138148,390.475066 L683.644165,379.209974 L625.656201,407.566929 Z M594,348.716535 L601.260597,332.304462 L656.053898,366.585302 L594,348.716535 Z M609.682889,283.650919 L626.043433,276.367454 L643.856096,338.616798 L609.682889,283.650919 Z M664.766614,245.971129 L681.804814,251.506562 L653.536892,309.677165 L664.766614,245.971129 Z M730.886447,254.808399 L739.792779,270.44357 L679.965463,294.624672 L730.886447,254.808399 Z M774.062794,305.792651 L770.287284,323.370079 L709.685505,301.228346 L774.062794,305.792651 Z M772.126635,372.703412 L757.605442,383.191601 L727.304553,326.089239 L772.126635,372.703412 Z M726.046049,421.065617 L708.233386,419.220472 L723.819466,356.388451 L726.046049,421.065617 Z M659.635793,426.115486 L647.631606,412.811024 L701.069597,376.587927 L659.635793,426.115486 Z M606.77865,385.328084 L606.77865,367.362205 L670.6719,376.296588 L606.77865,385.328084 Z M594.871272,319.485564 L606.77865,306.181102 L648.309262,355.708661 L594.871272,319.485564 Z M819.02199,340.039421 L819.02199,276.572897 L841.905694,276.572897 C860.498704,276.572897 872.655672,289.266202 872.655672,308.037991 C872.655672,326.809779 860.588093,340.039421 841.726915,340.039421 L819.02199,340.039421 Z M894.377313,341.112094 C885.259587,341.112094 879.181103,335.838116 879.181103,327.882453 C879.181103,323.591758 881.058282,320.016179 884.633861,317.781443 C887.851882,315.904264 892.142576,314.742201 899.204344,313.758917 L908.679628,312.596853 L908.679628,311.43479 C908.679628,304.73058 906.087334,301.870117 900.366407,301.870117 C895.092429,301.870117 891.963797,304.641191 891.606239,309.73639 L880.611335,309.73639 C881.32645,300.171717 888.835166,294.272012 900.366407,294.272012 C913.596049,294.272012 919.495754,299.903549 919.495754,312.865022 L919.495754,326.184053 C919.495754,332.262537 919.942701,336.910789 920.836596,340.039421 L910.10986,340.039421 C909.752302,337.804684 909.484133,335.123 909.394744,332.351926 C907.249397,337.804684 901.61786,341.112094 894.377313,341.112094 Z M926.557522,303.12157 L926.557522,295.344686 L934.602574,295.344686 L934.602574,284.081613 L945.329311,279.790918 L945.329311,295.344686 L956.234826,295.344686 L956.234826,303.12157 L945.329311,303.12157 L945.329311,324.485653 C945.329311,329.312684 947.385269,331.547421 951.854742,331.547421 C953.642532,331.547421 954.804595,331.368642 956.234826,331.011084 L956.234826,340.039421 C953.642532,340.575758 951.675963,340.843926 948.90489,340.843926 C938.178153,340.843926 934.602574,335.212389 934.602574,326.184053 L934.602574,303.12157 L926.557522,303.12157 Z M965.531331,287.92536 L965.531331,276.751676 L977.151962,276.751676 L977.151962,287.92536 L965.531331,287.92536 Z M966.067668,340.039421 L966.067668,295.344686 L976.794404,295.344686 L976.794404,340.039421 L966.067668,340.039421 Z M1009.15339,341.112094 C995.834361,341.112094 987.252972,331.904979 987.252972,317.692053 C987.252972,303.12157 995.655582,294.272012 1009.24278,294.272012 C1020.32708,294.272012 1027.56762,300.171717 1028.90847,310.362117 L1018.4499,312.060517 C1017.73478,305.982033 1014.24859,302.674622 1008.97461,302.674622 C1002.35979,302.674622 998.247877,308.216769 998.247877,317.423885 C998.247877,327.077948 1002.2704,332.620095 1009.15339,332.620095 C1014.51676,332.620095 1017.82417,329.312684 1018.80746,323.055421 L1028.90847,325.111379 C1027.29945,335.03361 1019.79074,341.112094 1009.15339,341.112094 Z M1050.54072,341.112094 C1041.42299,341.112094 1035.34451,335.838116 1035.34451,327.882453 C1035.34451,323.591758 1037.22169,320.016179 1040.79726,317.781443 C1044.01529,315.904264 1048.30598,314.742201 1055.36775,313.758917 L1064.84303,312.596853 L1064.84303,311.43479 C1064.84303,304.73058 1062.25074,301.870117 1056.52981,301.870117 C1051.25583,301.870117 1048.1272,304.641191 1047.76964,309.73639 L1036.77474,309.73639 C1037.48985,300.171717 1044.99857,294.272012 1056.52981,294.272012 C1069.75945,294.272012 1075.65916,299.903549 1075.65916,312.865022 L1075.65916,326.184053 C1075.65916,332.262537 1076.10611,336.910789 1077,340.039421 L1066.27326,340.039421 C1065.91571,337.804684 1065.64754,335.123 1065.55815,332.351926 C1063.4128,337.804684 1057.78126,341.112094 1050.54072,341.112094 Z M1054.02691,333.513989 C1060.64173,333.513989 1065.1112,328.865737 1065.1112,321.714579 L1065.1112,318.854116 L1055.01019,320.373737 C1049.11049,321.357022 1046.4288,323.502369 1046.4288,327.346116 C1046.4288,331.100474 1049.28926,333.513989 1054.02691,333.513989 Z M897.863502,333.513989 C904.478323,333.513989 908.947797,328.865737 908.947797,321.714579 L908.947797,318.854116 L898.846786,320.373737 C892.947081,321.357022 890.265397,323.502369 890.265397,327.346116 C890.265397,331.100474 893.12586,333.513989 897.863502,333.513989 Z M830.553231,331.011084 L841.369357,331.011084 C853.705104,331.011084 860.588093,320.641906 860.588093,308.037991 C860.588093,295.165907 853.973273,285.601234 841.548136,285.601234 L830.553231,285.601234 L830.553231,331.011084 Z M839.352,384.758 L839.352,389 L819.696,389 L819.696,359.18 L839.058,359.18 L839.058,363.422 L825.114,363.422 L825.114,371.612 L838.344,371.612 L838.344,375.812 L825.114,375.812 L825.114,384.758 L839.352,384.758 Z M845.148,368 L849.936,368 L849.936,372.074 C851.364007,368.993985 853.687984,367.454 856.908,367.454 C859.204011,367.454 860.939994,368.174993 862.116,369.617 C863.292006,371.059007 863.88,373.179986 863.88,375.98 L863.88,389 L858.798,389 L858.798,376.484 C858.798,373.179983 857.496013,371.528 854.892,371.528 C853.407993,371.528 852.253004,372.087994 851.427,373.208 C850.600996,374.328006 850.188,375.88199 850.188,377.87 L850.188,389 L845.148,389 L845.148,368 Z M884.376,369.512 C885.860007,370.828007 886.602,372.50799 886.602,374.552 C886.602,375.924007 886.252003,377.155995 885.552,378.248 C884.851996,379.340005 883.851007,380.193997 882.549,380.81 C881.246993,381.426003 879.728009,381.734 877.992,381.734 C876.395992,381.734 874.982006,381.482003 873.75,380.978 C873.049996,381.342002 872.7,381.873996 872.7,382.574 C872.7,383.862006 873.777989,384.506 875.934,384.506 L881.394,384.506 C883.830012,384.506 885.677994,385.023995 886.938,386.06 C888.198006,387.096005 888.828,388.59399 888.828,390.554 C888.828,392.794011 887.883009,394.543994 885.993,395.804 C884.102991,397.064006 881.310018,397.694 877.614,397.694 C874.225983,397.694 871.741008,397.197005 870.159,396.203 C868.576992,395.208995 867.786,393.900008 867.786,392.276 C867.786,391.351995 868.086997,390.526004 868.689,389.798 C869.291003,389.069996 870.151994,388.524002 871.272,388.16 C869.507991,387.431996 868.626,386.172009 868.626,384.38 C868.626,383.315995 868.912997,382.413004 869.487,381.671 C870.061003,380.928996 870.865995,380.348002 871.902,379.928 C871.089996,379.283997 870.460002,378.500005 870.012,377.576 C869.563998,376.651995 869.34,375.644005 869.34,374.552 C869.34,372.451989 870.116992,370.751007 871.671,369.449 C873.225008,368.146993 875.331987,367.496 877.992,367.496 C879.672008,367.496 881.141994,367.775997 882.402,368.336 C882.738002,367.131994 883.381995,366.187003 884.334,365.501 C885.286005,364.814997 886.489993,364.472 887.946,364.472 C888.338002,364.472 888.715998,364.514 889.08,364.598 L889.08,368.378 C888.463997,368.237999 887.904003,368.168 887.4,368.168 C886.027993,368.168 885.020003,368.615996 884.376,369.512 Z M893.028,368 L898.068,368 L898.068,389 L893.028,389 L893.028,368 Z M892.776,359.264 L898.236,359.264 L898.236,364.514 L892.776,364.514 L892.776,359.264 Z M904.746,368 L909.534,368 L909.534,372.074 C910.962007,368.993985 913.285984,367.454 916.506,367.454 C918.802011,367.454 920.537994,368.174993 921.714,369.617 C922.890006,371.059007 923.478,373.179986 923.478,375.98 L923.478,389 L918.396,389 L918.396,376.484 C918.396,373.179983 917.094013,371.528 914.49,371.528 C913.005993,371.528 911.851004,372.087994 911.025,373.208 C910.198996,374.328006 909.786,375.88199 909.786,377.87 L909.786,389 L904.746,389 L904.746,368 Z M947.502,379.76 L932.76,379.76 C932.788,381.524009 933.312995,382.930995 934.335,383.981 C935.357005,385.031005 936.693992,385.556 938.346,385.556 C939.550006,385.556 940.585996,385.262003 941.454,384.674 C942.322004,384.085997 942.993998,383.218006 943.47,382.07 L947.334,383.834 C946.549996,385.654009 945.367008,387.053995 943.785,388.034 C942.202992,389.014005 940.334011,389.504 938.178,389.504 C934.957984,389.504 932.438009,388.559009 930.618,386.669 C928.797991,384.778991 927.888,382.126017 927.888,378.71 C927.888,375.237983 928.776991,372.50101 930.555,370.499 C932.333009,368.49699 934.789984,367.496 937.926,367.496 C940.978015,367.496 943.336992,368.356991 945.003,370.079 C946.669008,371.801009 947.502,374.257984 947.502,377.45 L947.502,379.76 Z M970.518,379.76 L955.776,379.76 C955.804,381.524009 956.328995,382.930995 957.351,383.981 C958.373005,385.031005 959.709992,385.556 961.362,385.556 C962.566006,385.556 963.601996,385.262003 964.47,384.674 C965.338004,384.085997 966.009998,383.218006 966.486,382.07 L970.35,383.834 C969.565996,385.654009 968.383008,387.053995 966.801,388.034 C965.218992,389.014005 963.350011,389.504 961.194,389.504 C957.973984,389.504 955.454009,388.559009 953.634,386.669 C951.813991,384.778991 950.904,382.126017 950.904,378.71 C950.904,375.237983 951.792991,372.50101 953.571,370.499 C955.349009,368.49699 957.805984,367.496 960.942,367.496 C963.994015,367.496 966.352992,368.356991 968.019,370.079 C969.685008,371.801009 970.518,374.257984 970.518,377.45 L970.518,379.76 Z M982.908,368.987 C984.028006,367.992995 985.413992,367.496 987.066,367.496 C987.318001,367.496 987.513999,367.51 987.654,367.538 L987.654,372.368 L986.982,372.368 C985.105991,372.368 983.650005,372.857995 982.614,373.838 C981.857996,374.594004 981.354001,375.489995 981.102,376.526 C980.849999,377.562005 980.724,378.793993 980.724,380.222 L980.724,389 L975.684,389 L975.684,368 L980.388,368 L980.388,373.082 C980.948003,371.345991 981.787994,369.981005 982.908,368.987 Z M991.812,368 L996.852,368 L996.852,389 L991.812,389 L991.812,368 Z M991.56,359.264 L997.02,359.264 L997.02,364.514 L991.56,364.514 L991.56,359.264 Z M1003.53,368 L1008.318,368 L1008.318,372.074 C1009.74601,368.993985 1012.06998,367.454 1015.29,367.454 C1017.58601,367.454 1019.32199,368.174993 1020.498,369.617 C1021.67401,371.059007 1022.262,373.179986 1022.262,375.98 L1022.262,389 L1017.18,389 L1017.18,376.484 C1017.18,373.179983 1015.87801,371.528 1013.274,371.528 C1011.78999,371.528 1010.635,372.087994 1009.809,373.208 C1008.983,374.328006 1008.57,375.88199 1008.57,377.87 L1008.57,389 L1003.53,389 L1003.53,368 Z M1042.758,369.512 C1044.24201,370.828007 1044.984,372.50799 1044.984,374.552 C1044.984,375.924007 1044.634,377.155995 1043.934,378.248 C1043.234,379.340005 1042.23301,380.193997 1040.931,380.81 C1039.62899,381.426003 1038.11001,381.734 1036.374,381.734 C1034.77799,381.734 1033.36401,381.482003 1032.132,380.978 C1031.432,381.342002 1031.082,381.873996 1031.082,382.574 C1031.082,383.862006 1032.15999,384.506 1034.316,384.506 L1039.776,384.506 C1042.21201,384.506 1044.05999,385.023995 1045.32,386.06 C1046.58001,387.096005 1047.21,388.59399 1047.21,390.554 C1047.21,392.794011 1046.26501,394.543994 1044.375,395.804 C1042.48499,397.064006 1039.69202,397.694 1035.996,397.694 C1032.60798,397.694 1030.12301,397.197005 1028.541,396.203 C1026.95899,395.208995 1026.168,393.900008 1026.168,392.276 C1026.168,391.351995 1026.469,390.526004 1027.071,389.798 C1027.673,389.069996 1028.53399,388.524002 1029.654,388.16 C1027.88999,387.431996 1027.008,386.172009 1027.008,384.38 C1027.008,383.315995 1027.295,382.413004 1027.869,381.671 C1028.443,380.928996 1029.24799,380.348002 1030.284,379.928 C1029.472,379.283997 1028.842,378.500005 1028.394,377.576 C1027.946,376.651995 1027.722,375.644005 1027.722,374.552 C1027.722,372.451989 1028.49899,370.751007 1030.053,369.449 C1031.60701,368.146993 1033.71399,367.496 1036.374,367.496 C1038.05401,367.496 1039.52399,367.775997 1040.784,368.336 C1041.12,367.131994 1041.764,366.187003 1042.716,365.501 C1043.668,364.814997 1044.87199,364.472 1046.328,364.472 C1046.72,364.472 1047.098,364.514 1047.462,364.598 L1047.462,368.378 C1046.846,368.237999 1046.286,368.168 1045.782,368.168 C1044.40999,368.168 1043.402,368.615996 1042.758,369.512 Z M1033.56,388.79 C1033.112,388.79 1032.552,388.762 1031.88,388.706 C1030.84399,389.322003 1030.326,390.203994 1030.326,391.352 C1030.326,393.39601 1032.34198,394.418 1036.374,394.418 C1040.57402,394.418 1042.674,393.41001 1042.674,391.394 C1042.674,389.685991 1041.45601,388.832 1039.02,388.832 L1033.56,388.79 Z M1039.167,377.534 C1039.881,376.777996 1040.238,375.798006 1040.238,374.594 C1040.238,373.389994 1039.888,372.417004 1039.188,371.675 C1038.488,370.932996 1037.55001,370.562 1036.374,370.562 C1035.19799,370.562 1034.26,370.932996 1033.56,371.675 C1032.86,372.417004 1032.51,373.375994 1032.51,374.552 C1032.51,375.756006 1032.86,376.742996 1033.56,377.513 C1034.26,378.283004 1035.19799,378.668 1036.374,378.668 C1037.52201,378.668 1038.453,378.290004 1039.167,377.534 Z M965.562,376.106 C965.562,374.397991 965.156004,373.096004 964.344,372.2 C963.531996,371.303996 962.370008,370.856 960.858,370.856 C959.261992,370.856 958.030004,371.345995 957.162,372.326 C956.293996,373.306005 955.832,374.677991 955.776,376.442 L965.562,376.442 L965.562,376.106 Z M942.546,376.106 C942.546,374.397991 942.140004,373.096004 941.328,372.2 C940.515996,371.303996 939.354008,370.856 937.842,370.856 C936.245992,370.856 935.014004,371.345995 934.146,372.326 C933.277996,373.306005 932.816,374.677991 932.76,376.442 L942.546,376.442 L942.546,376.106 Z M875.178,388.79 C874.729998,388.79 874.170003,388.762 873.498,388.706 C872.461995,389.322003 871.944,390.203994 871.944,391.352 C871.944,393.39601 873.95998,394.418 877.992,394.418 C882.192021,394.418 884.292,393.41001 884.292,391.394 C884.292,389.685991 883.074012,388.832 880.638,388.832 L875.178,388.79 Z M880.785,377.534 C881.499004,376.777996 881.856,375.798006 881.856,374.594 C881.856,373.389994 881.506003,372.417004 880.806,371.675 C880.105996,370.932996 879.168006,370.562 877.992,370.562 C876.815994,370.562 875.878003,370.932996 875.178,371.675 C874.477996,372.417004 874.128,373.375994 874.128,374.552 C874.128,375.756006 874.477996,376.742996 875.178,377.513 C875.878003,378.283004 876.815994,378.668 877.992,378.668 C879.140006,378.668 880.070996,378.290004 880.785,377.534 Z" id="Combined-Shape"></path>
        </g>
    </g>
</svg>
