<?xml version="1.0" encoding="UTF-8"?>
<svg width="220px" height="89px" viewBox="0 0 220 89" version="1.1" xmlns="http://www.w3.org/2000/svg" xmlns:xlink="http://www.w3.org/1999/xlink">
    <!-- Generator: Sketch 42 (36781) - http://www.bohemiancoding.com/sketch -->
    <title>_datica-logo-deep</title>
    <desc>Created with Sketch.</desc>
    <defs></defs>
    <g id="Page-1" stroke="none" stroke-width="1" fill="none" fill-rule="evenodd">
        <g id="Logo-Size:-220px" transform="translate(-50.000000, -50.000000)" fill="#010101">
            <path d="M50.4179344,85.7294756 L56.129704,79.3475484 L76.0512419,103.105088 L50.4179344,85.7294756 Z M56.129704,117.313028 L56.129704,108.695097 L86.7782239,112.98077 L56.129704,117.313028 Z M81.4843886,136.87806 L75.7261819,130.496133 L101.359489,113.120521 L81.4843886,136.87806 Z M113.340274,134.455723 L104.795839,133.570638 L112.27222,103.431171 L113.340274,134.455723 Z M135.444359,111.257184 L128.478786,116.288193 L113.943957,88.8971474 L135.444359,111.257184 Z M136.373102,79.1612147 L134.562053,87.592812 L105.492396,76.9717945 L136.373102,79.1612147 Z M115.662132,54.7049244 L119.93435,62.2048534 L91.2361904,73.8041226 L115.662132,54.7049244 Z M83.9455576,50.4658341 L92.1184963,53.1210885 L78.5588481,81.0245511 L83.9455576,50.4658341 Z M57.5228185,68.5401972 L65.3706971,65.0464415 L73.915133,94.9064073 L57.5228185,68.5401972 Z M50,99.751082 L53.4827864,91.8784857 L79.766214,108.322429 L50,99.751082 Z M65.1849485,127.980629 L62.5380309,119.781948 L93.0008022,114.378273 L65.1849485,127.980629 Z M95.3226597,138.741396 L87.8462784,134.455723 L106.931948,109.952849 L95.3226597,138.741396 Z M124.903125,126.536543 L116.498001,128.353296 L114.315455,97.3753281 L124.903125,126.536543 Z M138.741396,97.6082451 L133.679747,104.595757 L111.389914,83.0276378 L138.741396,97.6082451 Z M129.732589,66.8631945 L130.614895,75.4345419 L99.687752,74.3631235 L129.732589,66.8631945 Z M102.520418,50 L108.882308,55.7763429 L85.1993607,75.7606258 L102.520418,50 Z M71.0360296,55.7763429 L79.6269026,55.7763429 L75.3082475,86.5213935 L71.0360296,55.7763429 Z M156.489676,108.097345 L156.489676,80.1720747 L166.558505,80.1720747 C174.73943,80.1720747 180.088496,85.7571288 180.088496,94.0167158 C180.088496,102.276303 174.778761,108.097345 166.479843,108.097345 L156.489676,108.097345 Z M189.646018,108.569322 C185.634218,108.569322 182.959685,106.248771 182.959685,102.748279 C182.959685,100.860374 183.785644,99.287119 185.358899,98.3038348 C186.774828,97.4778761 188.662734,96.9665683 191.769912,96.5339233 L195.939036,96.0226155 L195.939036,95.5113078 C195.939036,92.5614553 194.798427,91.3028515 192.281219,91.3028515 C189.960669,91.3028515 188.584071,92.5221239 188.426745,94.7640118 L183.588987,94.7640118 C183.903638,90.5555556 187.207473,87.9596853 192.281219,87.9596853 C198.102262,87.9596853 200.698132,90.4375615 200.698132,96.1406096 L200.698132,102.000983 C200.698132,104.675516 200.894789,106.720747 201.288102,108.097345 L196.568338,108.097345 C196.411013,107.114061 196.293019,105.93412 196.253687,104.714848 C195.309735,107.114061 192.831858,108.569322 189.646018,108.569322 Z M203.80531,91.8534907 L203.80531,88.4316618 L207.345133,88.4316618 L207.345133,83.4759095 L212.064897,81.5880039 L212.064897,88.4316618 L216.863324,88.4316618 L216.863324,91.8534907 L212.064897,91.8534907 L212.064897,101.253687 C212.064897,103.377581 212.969518,104.360865 214.936087,104.360865 C215.722714,104.360865 216.234022,104.282203 216.863324,104.124877 L216.863324,108.097345 C215.722714,108.333333 214.857424,108.451327 213.638151,108.451327 C208.918387,108.451327 207.345133,105.973451 207.345133,102.000983 L207.345133,91.8534907 L203.80531,91.8534907 Z M220.953786,85.1671583 L220.953786,80.2507375 L226.066863,80.2507375 L226.066863,85.1671583 L220.953786,85.1671583 Z M221.189774,108.097345 L221.189774,88.4316618 L225.909538,88.4316618 L225.909538,108.097345 L221.189774,108.097345 Z M240.147493,108.569322 C234.287119,108.569322 230.511308,104.518191 230.511308,98.2645034 C230.511308,91.8534907 234.208456,87.9596853 240.186824,87.9596853 C245.063913,87.9596853 248.249754,90.5555556 248.839725,95.0393314 L244.237955,95.7866273 C243.923304,93.1120944 242.389381,91.6568338 240.06883,91.6568338 C237.158309,91.6568338 235.349066,94.0953786 235.349066,98.1465093 C235.349066,102.394297 237.118977,104.832842 240.147493,104.832842 C242.507375,104.832842 243.962635,103.377581 244.39528,100.624385 L248.839725,101.529007 C248.13176,105.894789 244.827925,108.569322 240.147493,108.569322 Z M258.357915,108.569322 C254.346116,108.569322 251.671583,106.248771 251.671583,102.748279 C251.671583,100.860374 252.497542,99.287119 254.070796,98.3038348 C255.486726,97.4778761 257.374631,96.9665683 260.481809,96.5339233 L264.650934,96.0226155 L264.650934,95.5113078 C264.650934,92.5614553 263.510324,91.3028515 260.993117,91.3028515 C258.672566,91.3028515 257.295969,92.5221239 257.138643,94.7640118 L252.300885,94.7640118 C252.615536,90.5555556 255.919371,87.9596853 260.993117,87.9596853 C266.814159,87.9596853 269.410029,90.4375615 269.410029,96.1406096 L269.410029,102.000983 C269.410029,104.675516 269.606686,106.720747 270,108.097345 L265.280236,108.097345 C265.122911,107.114061 265.004916,105.93412 264.965585,104.714848 C264.021632,107.114061 261.543756,108.569322 258.357915,108.569322 Z M259.891839,105.226155 C262.80236,105.226155 264.768928,103.180924 264.768928,100.034415 L264.768928,98.7758112 L260.324484,99.4444444 C257.728614,99.8770895 256.548673,100.821042 256.548673,102.512291 C256.548673,104.164208 257.807276,105.226155 259.891839,105.226155 Z M191.179941,105.226155 C194.090462,105.226155 196.05703,103.180924 196.05703,100.034415 L196.05703,98.7758112 L191.612586,99.4444444 C189.016716,99.8770895 187.836775,100.821042 187.836775,102.512291 C187.836775,104.164208 189.095379,105.226155 191.179941,105.226155 Z M161.563422,104.124877 L166.322517,104.124877 C171.750246,104.124877 174.778761,99.5624385 174.778761,94.0167158 C174.778761,88.352999 171.86824,84.1445428 166.40118,84.1445428 L161.563422,84.1445428 L161.563422,104.124877 Z" id="_datica-logo-deep"></path>
        </g>
    </g>
</svg>